<?xml version="1.0" standalone="no"?><!DOCTYPE svg PUBLIC "-//W3C//DTD SVG 1.1//EN" "http://www.w3.org/Graphics/SVG/1.1/DTD/svg11.dtd"><svg t="1743416628382" class="icon" viewBox="0 0 1024 1024" version="1.1" xmlns="http://www.w3.org/2000/svg" p-id="7597" xmlns:xlink="http://www.w3.org/1999/xlink" width="200" height="200"><path d="M523.082083 999.553404c-237.657502 0-392.362259-225.615418-398.829864-235.219746a53.924031 53.924031 0 0 1-9.203069-30.128941v-517.753537c0-29.788087 24.144573-53.93266 53.93266-53.93266 220.774422 0 291.50387-110.268559 292.151062-111.381729a53.867941 53.867941 0 0 1 48.474675-26.651363 53.928345 53.928345 0 0 1 46.442492 30.051278c62.531683 126.853931 282.736577 108.47368 284.932715 108.24932a53.924031 53.924031 0 0 1 59.321612 53.665154v345.169025c0 29.783772-24.153202 53.93266-53.93266 53.93266s-53.93266-24.148888-53.93266-53.93266V271.725685c-76.174489-1.876857-207.916876-19.036072-290.472678-107.597814-49.221103 42.291835-136.958754 93.696132-279.056212 104.288506v448.050966c32.445888 41.817227 147.749601 175.039527 299.852646 175.216426 8.115787-0.176899 156.663591-5.829042 250.023182-182.663447 13.905997-26.340711 46.52447-36.419647 72.878125-22.517965 26.340711 13.905997 36.419647 46.533099 22.517964 72.878125-125.348131 237.441772-336.181686 240.172922-345.09999 240.172922z" p-id="7598"></path><path d="M473.170642 694.294548a53.760076 53.760076 0 0 1-38.136862-15.791483l-110.022627-110.022626c-21.059625-21.068254-21.059625-55.209785 0-76.273725 21.06394-21.06394 55.209785-21.06394 76.273725 0l71.885764 71.885764 149.548794-149.548795c21.06394-21.059625 55.209785-21.05531 76.273726 0 21.06394 21.06394 21.06394 55.209785 0 76.273725l-187.685657 187.685657a53.794592 53.794592 0 0 1-38.136863 15.791483z" p-id="7599"></path></svg>